<?xml version="1.0" ?>
<!-- Uploaded to: SVG Repo, www.svgrepo.com, Generator: SVG Repo Mixer Tools -->
<svg width="800px" height="800px" viewBox="0 0 512 512" id="svg2793" style="fill-rule:evenodd;clip-rule:evenodd;stroke-linejoin:round;stroke-miterlimit:2;" version="1.1" xml:space="preserve" xmlns="http://www.w3.org/2000/svg" xmlns:cc="http://creativecommons.org/ns#" xmlns:dc="http://purl.org/dc/elements/1.1/" xmlns:rdf="http://www.w3.org/1999/02/22-rdf-syntax-ns#" xmlns:serif="http://www.serif.com/" xmlns:svg="http://www.w3.org/2000/svg">
<defs id="defs2797"/>
<g id="_16-Deadline" style="display:inline" transform="translate(5e-5,-3072)">
<g id="g2395" transform="translate(385.48,3239.03)">
<path d="m 0,28.1 c 2.37,1.37 4.95,2.02 7.5,2.02 5.18,0 10.22,-2.69 13,-7.5 1.36,-2.35 2.01,-4.92 2.02,-7.46 C 22.53,9.97 19.84,4.91 15.02,2.13 7.85,-2.02 -1.32,0.43 -5.47,7.6 -6.83,9.96 -7.48,12.53 -7.49,15.06 -7.5,20.26 -4.81,25.31 0,28.1" id="path2393" style="fill-rule:nonzero"/>
</g>
<g id="g2399" transform="translate(250.95,3400.02)">
<path d="m 0,-23.77 c -4.78,2.79 -7.44,7.82 -7.43,12.98 0,2.56 0.66,5.16 2.05,7.54 2.79,4.77 7.81,7.43 12.96,7.43 2.57,0 5.18,-0.66 7.55,-2.05 4.78,-2.79 7.44,-7.81 7.44,-12.98 0,-2.56 -0.66,-5.16 -2.05,-7.53 C 16.34,-25.54 7.16,-27.95 0,-23.77" id="path2397" style="fill-rule:nonzero"/>
</g>
<g id="g2403" transform="translate(294,3237.3)">
<path d="m 0,32.13 c 2.58,0 5.19,-0.66 7.57,-2.06 C 12.34,27.27 15,22.24 14.99,17.08 14.98,14.52 14.32,11.92 12.93,9.54 8.74,2.4 -0.45,0 -7.6,4.19 c -4.77,2.79 -7.43,7.82 -7.42,12.98 0.01,2.57 0.67,5.17 2.06,7.54 2.79,4.77 7.81,7.42 12.96,7.42" id="path2401" style="fill-rule:nonzero"/>
</g>
<g id="g2407" transform="translate(245.18,3324.96)">
<path d="M 0,30.04 C 8.25,30 14.92,23.31 14.94,15.07 V 14.98 C 14.9,6.69 8.16,0 -0.12,0.04 -8.38,0.08 -15.04,6.77 -15.06,15.01 v 0.09 c 0.03,8.27 6.74,14.94 15,14.94 z" id="path2405" style="fill-rule:nonzero"/>
</g>
<g id="g2411" transform="translate(343.73,3225.96)">
<path d="M 0,30 C 8.28,30 15,23.28 15,15 15,6.72 8.28,0 0,0 c -8.29,0 -15,6.72 -15,15 0,8.29 6.71,15 15,15" id="path2409" style="fill-rule:nonzero"/>
</g>
<g id="g2415" transform="translate(250.64,3275.53)">
<path d="m 0,28.16 c 2.35,1.35 4.91,1.99 7.44,1.99 5.2,0 10.26,-2.71 13.03,-7.55 1.35,-2.36 1.99,-4.93 1.99,-7.47 C 22.45,9.94 19.74,4.9 14.91,2.13 7.72,-1.99 -1.45,0.5 -5.56,7.69 c -1.36,2.36 -1.99,4.93 -1.99,7.47 0.01,5.19 2.72,10.24 7.55,13" id="path2413" style="fill-rule:nonzero"/>
</g>
<g id="g2419" transform="translate(302.19,3436.01)">
<path d="m 0,-23.88 c -7.19,-4.13 -16.36,-1.65 -20.48,5.54 -1.36,2.35 -2,4.92 -2,7.46 0,5.19 2.71,10.24 7.53,13.02 V 2.13 c 2.36,1.36 4.93,2 7.46,2 5.2,0 10.25,-2.7 13.02,-7.53 1.36,-2.36 2,-4.93 2,-7.46 0,-5.2 -2.71,-10.25 -7.53,-13.02" id="path2417" style="fill-rule:nonzero"/>
</g>
<g id="g2423" transform="translate(436.72,3399.58)">
<path d="m 0,-23.87 c -7.18,-4.13 -16.35,-1.67 -20.49,5.51 -1.36,2.35 -2,4.92 -2.01,7.46 0,5.19 2.69,10.24 7.52,13.02 2.36,1.36 4.93,2.01 7.47,2.01 5.19,0 10.23,-2.69 13.01,-7.51 1.36,-2.36 2,-4.93 2.01,-7.46 0,-5.2 -2.69,-10.25 -7.51,-13.03" id="path2421" style="fill-rule:nonzero"/>
</g>
<g id="g2427" transform="translate(429.1,3273.05)">
<path d="m 0,32.14 c 2.56,0 5.14,-0.65 7.51,-2.03 4.79,-2.78 7.47,-7.79 7.48,-12.96 0,-2.56 -0.65,-5.16 -2.03,-7.54 C 8.8,2.44 -0.38,0 -7.54,4.16 c -4.79,2.78 -7.47,7.8 -7.48,12.96 0,2.56 0.65,5.16 2.03,7.54 2.78,4.8 7.82,7.48 12.99,7.48" id="path2425" style="fill-rule:nonzero"/>
</g>
<g id="g2431" transform="translate(442.32,3354.41)">
<path d="m 0,-29.98 c -8.29,0.01 -14.99,6.73 -14.98,15.02 0.01,8.27 6.73,14.98 15,14.98 H 0.04 C 8.33,0 15.03,-6.72 15.02,-15.01 15.01,-23.29 8.28,-30 0,-29.98" id="path2429" style="fill-rule:nonzero"/>
</g>
<g id="g2435" transform="translate(343.97,3453.16)">
<path d="m 0,-29.98 c -8.28,0.02 -14.98,6.76 -14.95,15.04 0.02,8.27 6.73,14.96 14.99,14.96 H 0.09 C 8.37,0 15.07,-6.74 15.05,-15.02 15.02,-23.31 8.29,-30 0,-29.98" id="path2433" style="fill-rule:nonzero"/>
</g>
<g id="g2439" transform="translate(385.69,3435.68)">
<path d="m 0,-23.79 c -4.78,2.78 -7.45,7.8 -7.46,12.97 0,2.56 0.66,5.16 2.04,7.54 2.79,4.78 7.82,7.45 12.98,7.45 2.56,0 5.16,-0.65 7.53,-2.03 4.78,-2.79 7.46,-7.81 7.46,-12.97 0,-2.57 -0.66,-5.17 -2.04,-7.54 C 16.34,-25.53 7.16,-27.96 0,-23.79" id="path2437" style="fill-rule:nonzero"/>
</g>
<g id="g2443" transform="translate(343.73,3176.7)">
<path d="m 0,301.145 c -76.243,0 -138.271,-62.028 -138.271,-138.27 0,-76.242 62.028,-138.27 138.271,-138.27 76.242,0 138.27,62.028 138.27,138.27 0,76.242 -62.028,138.27 -138.27,138.27 m 115.132,-260.866 8.039,-8.04 12.953,12.952 c 2.928,2.93 6.767,4.394 10.606,4.394 3.839,0 7.678,-1.464 10.606,-4.394 5.858,-5.858 5.858,-15.355 0,-21.213 L 133.801,0.443 C 133.793,0.435 133.787,0.426 133.778,0.418 133.77,0.41 133.761,0.403 133.753,0.395 l -24.537,-24.537 c -5.857,-5.858 -15.355,-5.858 -21.213,0 -5.857,5.858 -5.857,15.355 0,21.213 L 101.958,11.026 91.355,21.629 C 65.029,4.543 33.655,-5.395 0,-5.395 c -33.655,0 -65.03,9.938 -91.356,27.025 l -10.603,-10.604 13.954,-13.955 c 5.858,-5.858 5.858,-15.355 0,-21.213 -5.857,-5.858 -15.355,-5.858 -21.213,0 l -24.534,24.535 c -0.009,0.009 -0.019,0.016 -0.028,0.025 -0.009,0.009 -0.016,0.019 -0.025,0.028 l -23.532,23.532 c -5.858,5.858 -5.858,15.356 0,21.213 2.928,2.93 6.767,4.394 10.606,4.394 3.839,0 7.678,-1.464 10.606,-4.394 l 12.952,-12.951 8.04,8.04 c -32.687,30.715 -53.138,74.309 -53.138,122.595 0,92.784 75.486,168.27 168.271,168.27 92.785,0 168.27,-75.486 168.27,-168.27 0,-48.287 -20.451,-91.88 -53.138,-122.596" id="path2441" style="fill-rule:nonzero"/>
</g>
<g id="g2447" transform="translate(348.121,3310.59)">
<path d="M 0,56.499 33.823,22.679 C 39.682,16.822 39.682,7.324 33.824,1.466 27.967,-4.393 18.469,-4.393 12.611,1.465 L -10.606,24.68 -21.393,13.895 c -5.858,-5.857 -15.356,-5.857 -21.213,0.001 -5.857,5.859 -5.857,15.356 0.002,21.214 l 21.392,21.389 c 2.929,2.929 6.768,4.393 10.606,4.393 3.838,0 7.677,-1.464 10.606,-4.393" id="path2445" style="fill-rule:nonzero"/>
</g>
<g id="g2451" transform="translate(138.982,3238.78)">
<path d="m 0,-30 h -42.03 c -8.284,0 -15,6.716 -15,15 0,8.284 6.716,15 15,15 H 0 C 8.284,0 15,-6.716 15,-15 15,-23.284 8.284,-30 0,-30" id="path2449" style="fill-rule:nonzero"/>
</g>
<g id="g2455" transform="translate(138.982,3296.67)">
<path d="m 0,-30 h -57.687 c -8.284,0 -15,6.716 -15,15 0,8.284 6.716,15 15,15 H 0 C 8.284,0 15,-6.716 15,-15 15,-23.284 8.284,-30 0,-30" id="path2453" style="fill-rule:nonzero"/>
</g>
<g id="g2459" transform="translate(138.982,3354.57)">
<path d="m 0,-30 h -83.014 c -8.284,0 -15,6.716 -15,15 0,8.284 6.716,15 15,15 H 0 C 8.284,0 15,-6.716 15,-15 15,-23.284 8.284,-30 0,-30" id="path2457" style="fill-rule:nonzero"/>
</g>
<g id="g2463" transform="translate(138.982,3412.46)">
<path d="m 0,-30 h -103.683 c -8.284,0 -15,6.716 -15,15 0,8.284 6.716,15 15,15 H 0 C 8.284,0 15,-6.716 15,-15 15,-23.284 8.284,-30 0,-30" id="path2461" style="fill-rule:nonzero"/>
</g>
<g id="g2467" transform="translate(138.982,3470.36)">
<path d="m 0,-30 h -123.982 c -8.284,0 -15,6.716 -15,15 0,8.284 6.716,15 15,15 H 0 C 8.284,0 15,-6.716 15,-15 15,-23.284 8.284,-30 0,-30" id="path2465" style="fill-rule:nonzero"/>
</g>
</g>
</svg>